<?xml version="1.0" encoding="utf-8"?>
<!-- Generator: Adobe Illustrator 23.0.0, SVG Export Plug-In . SVG Version: 6.00 Build 0)  -->
<svg version="1.1" id="refresh" xmlns="http://www.w3.org/2000/svg" xmlns:xlink="http://www.w3.org/1999/xlink" x="0px" y="0px"
	 viewBox="0 0 24 24" style="enable-background:new 0 0 24 24;" xml:space="preserve">
<style type="text/css">
	.st0{fill:#808080;stroke:#3F3F3F;stroke-width:0.5;stroke-miterlimit:10;}
</style>
<path id="circle_arrow" class="st0" d="M22,10.5l-0.5-6c-0.1-0.6-0.5-1-1-1c-0.2,0-0.5,0.1-0.8,0.3l-1.5,1.4
	C14.4,1.6,8.4,1.6,4.8,5.3C3,7.1,2,9.5,2,12s1,4.9,2.8,6.7c1.8,1.8,4.2,2.8,6.7,2.8s4.9-1,6.7-2.8c0.6-0.6,1.1-1.2,1.5-2
	c0.5-0.8,0.2-1.8-0.6-2.2c-0.8-0.5-1.8-0.2-2.2,0.6c-0.3,0.5-0.6,0.9-1,1.3c-1.2,1.2-2.7,1.8-4.4,1.8s-3.2-0.6-4.4-1.8
	S5.3,13.7,5.3,12s0.6-3.2,1.8-4.4c2.3-2.3,6.1-2.4,8.5-0.3l-1.5,1.3c-0.3,0.3-0.5,0.7-0.4,1.1c0.1,0.4,0.4,0.7,0.9,0.8l5.9,1.3
	c0.1,0,0.2,0,0.3,0c0.3,0,0.7-0.1,0.9-0.4C21.9,11.2,22,10.9,22,10.5z"/>
</svg>
