<?xml version="1.0" encoding="utf-8"?>
<!-- Generator: Adobe Illustrator 23.0.0, SVG Export Plug-In . SVG Version: 6.00 Build 0)  -->
<svg version="1.1" id="ramp_weights" xmlns="http://www.w3.org/2000/svg" xmlns:xlink="http://www.w3.org/1999/xlink" x="0px"
	 y="0px" viewBox="0 0 32 32" style="enable-background:new 0 0 32 32;" xml:space="preserve">
<style type="text/css">
	.st0{fill-rule:evenodd;clip-rule:evenodd;fill:#AE9CDB;stroke:#3F3F3F;stroke-width:0.5;stroke-miterlimit:10;}
	.st1{fill-rule:evenodd;clip-rule:evenodd;fill:#AE9CDB;stroke:#3F3F3F;stroke-width:0.75;stroke-miterlimit:10;}
	.st2{fill:#808080;stroke:#3F3F3F;stroke-miterlimit:10;}
	.st3{fill:#BFBFBF;stroke:#3F3F3F;stroke-miterlimit:10;}
</style>
<rect id="line_3_" x="4.5" y="11" class="st0" width="7" height="2"/>
<rect id="line_2_" x="4.5" y="3" class="st0" width="7" height="2"/>
<rect id="line_8_" x="12.5" y="3" class="st0" width="7" height="2"/>
<rect id="line_1_" x="3" y="5" class="st0" width="2" height="6"/>
<rect id="line" x="11" y="5" class="st0" width="2" height="6"/>
<rect id="vertex_6_" x="1.2" y="9.2" class="st1" width="5.5" height="5.5"/>
<rect id="vertex_2_" x="9.2" y="9.2" class="st1" width="5.5" height="5.5"/>
<rect id="vertex_9_" x="1.2" y="1.3" class="st1" width="5.5" height="5.5"/>
<rect id="vertex_8_" x="9.2" y="1.3" class="st1" width="5.5" height="5.5"/>
<rect id="vertex_15_" x="17.2" y="1.3" class="st1" width="5.5" height="5.5"/>
<path id="ramp_2_" class="st2" d="M16.3,30.4H1.4V16.5c0,0,5.6,1,9.7,5.2C14.5,25.3,16.3,30.4,16.3,30.4z"/>
<path id="ramp_1_" class="st3" d="M30.5,8.5c0,0.9,0,21.9,0,21.9s-18.1,0-24.9,0C19,30.4,19,8.5,30.5,8.5z"/>
</svg>
