<?xml version="1.0" encoding="utf-8"?>
<!-- Generator: Adobe Illustrator 23.0.0, SVG Export Plug-In . SVG Version: 6.00 Build 0)  -->
<svg version="1.1" id="default" xmlns="http://www.w3.org/2000/svg" xmlns:xlink="http://www.w3.org/1999/xlink" x="0px" y="0px"
	 viewBox="0 0 36 36" style="enable-background:new 0 0 36 36;" xml:space="preserve">
<style type="text/css">
	.st0{fill-rule:evenodd;clip-rule:evenodd;fill:#D8D8D8;}
	.st1{fill:none;stroke:#D8D8D8;stroke-miterlimit:10;}
</style>
<path id="curve" class="st0" d="M31.9,35.5H5.6l-3.4-1.3c0,0-0.8-2-0.8-2.7C18,31.5,18,12,35,12c0,5.5,0,20.5,0,20.5L31.9,35.5z"/>
<path id="frame_1_" class="st1" d="M1,5.1c0-2.4,1.9-4.3,4.2-4.3h25.5c2.3,0,4.2,1.9,4.2,4.3v25.8c0,2.4-1.9,4.3-4.2,4.3H5.2
	c-2.3,0-4.2-1.9-4.2-4.3V5.1L1,5.1L1,5.1z"/>
</svg>
