<?xml version="1.0" encoding="utf-8"?>
<!-- Generator: Adobe Illustrator 23.0.0, SVG Export Plug-In . SVG Version: 6.00 Build 0)  -->
<svg version="1.1" id="invert" xmlns="http://www.w3.org/2000/svg" xmlns:xlink="http://www.w3.org/1999/xlink" x="0px" y="0px"
	 viewBox="0 0 24 24" style="enable-background:new 0 0 24 24;" xml:space="preserve">
<style type="text/css">
	.st0{fill:#808080;stroke:#3F3F3F;stroke-width:0.5;stroke-miterlimit:10;}
</style>
<path id="half_circle" class="st0" d="M12,18.6c0,0.3-0.3,0.6-0.6,0.6c-3.7-0.3-6.6-3.4-6.6-7.2s2.9-6.9,6.6-7.2
	C11.7,4.7,12,5,12,5.4V18.6z"/>
<path id="circle" class="st0" d="M20.2,12c0,4.6-3.7,8.2-8.2,8.2S3.8,16.6,3.8,12S7.4,3.8,12,3.8S20.2,7.4,20.2,12z M12,2
	C6.5,2,2,6.5,2,12s4.5,10,10,10s10-4.5,10-10S17.5,2,12,2z"/>
</svg>
