<?xml version="1.0" encoding="utf-8"?>
<!-- Generator: Adobe Illustrator 23.0.0, SVG Export Plug-In . SVG Version: 6.00 Build 0)  -->
<svg version="1.1" id="centered" xmlns="http://www.w3.org/2000/svg" xmlns:xlink="http://www.w3.org/1999/xlink" x="0px" y="0px"
	 viewBox="0 0 36 36" style="enable-background:new 0 0 36 36;" xml:space="preserve">
<style type="text/css">
	.st0{fill-rule:evenodd;clip-rule:evenodd;fill:#D8D8D8;}
	.st1{fill:none;stroke:#D8D8D8;stroke-miterlimit:10;}
	.st2{fill:#D8D8D8;}
</style>
<path id="curve" class="st0" d="M31.9,35.5H5.6l-3.4-1.3c0,0-1.4-1.9-1.4-2.7C9,31.5,8.9,12,18,12c9,0,9,19.5,17,19.5c0,0.2,0,1,0,1
	L31.9,35.5z"/>
<path id="frame_1_" class="st1" d="M1,5.1c0-2.4,1.9-4.3,4.2-4.3h25.5c2.3,0,4.2,1.9,4.2,4.3v25.8c0,2.4-1.9,4.3-4.2,4.3H5.2
	c-2.3,0-4.2-1.9-4.2-4.3V5.1L1,5.1L1,5.1z"/>
<path id="arrows" class="st2" d="M23,4.7c0,0.3,0.1,0.5,0.3,0.7l0,0l1.3,1.2H11.4l1.3-1.2l0,0C12.9,5.2,13,5,13,4.7
	c0-0.5-0.4-0.9-0.9-0.9c-0.2,0-0.5,0.1-0.6,0.2l0,0L8.3,6.8l0,0C8.1,7,8,7.2,8,7.5S8.1,8,8.3,8.2l0,0l3.1,2.8l0,0
	c0.2,0.1,0.4,0.2,0.6,0.2c0.5,0,0.9-0.4,0.9-0.9c0-0.3-0.1-0.5-0.3-0.7l0,0l-1.3-1.2h13.2l-1.3,1.2l0,0C23.1,9.8,23,10,23,10.3
	c0,0.5,0.4,0.9,0.9,0.9c0.2,0,0.5-0.1,0.6-0.2l0,0l3.1-2.8l0,0C27.9,8,28,7.8,28,7.5S27.9,7,27.7,6.8l0,0L24.6,4l0,0
	c-0.2-0.1-0.4-0.2-0.6-0.2C23.4,3.8,23,4.2,23,4.7z"/>
</svg>
