<?xml version="1.0" encoding="utf-8"?>
<!-- Generator: Adobe Illustrator 23.0.0, SVG Export Plug-In . SVG Version: 6.00 Build 0)  -->
<svg version="1.1" id="mirrored" xmlns="http://www.w3.org/2000/svg" xmlns:xlink="http://www.w3.org/1999/xlink" x="0px" y="0px"
	 viewBox="0 0 36 36" style="enable-background:new 0 0 36 36;" xml:space="preserve">
<style type="text/css">
	.st0{fill-rule:evenodd;clip-rule:evenodd;fill:#D8D8D8;}
	.st1{fill-rule:evenodd;clip-rule:evenodd;fill:none;stroke:#D8D8D8;stroke-miterlimit:10;}
</style>
<path id="left_curve" class="st0" d="M4.1,35.5H18c0,0,0-2.4,0-3.1C8.9,32.4,9,12,1,12c0,5.5,0,20.5,0,20.5L4.1,35.5z"/>
<path id="right_curve" class="st0" d="M31.9,35.5H18c0,0,0-2.4,0-3.1c9.1,0,9-20.4,17-20.4c0,5.5,0,20.5,0,20.5L31.9,35.5z"/>
<path id="frame_1_" class="st1" d="M1,5.1c0-2.4,1.9-4.3,4.2-4.3h25.5c2.3,0,4.2,1.9,4.2,4.3v25.8c0,2.4-1.9,4.3-4.2,4.3H5.2
	c-2.3,0-4.2-1.9-4.2-4.3V5.1L1,5.1L1,5.1z"/>
<rect id="mirror_line" x="17.5" y="1" class="st0" width="1" height="34"/>
</svg>
