<?xml version="1.0" encoding="utf-8"?>
<!-- Generator: Adobe Illustrator 23.0.0, SVG Export Plug-In . SVG Version: 6.00 Build 0)  -->
<svg version="1.1" id="ramp_weights" xmlns="http://www.w3.org/2000/svg" xmlns:xlink="http://www.w3.org/1999/xlink" x="0px"
	 y="0px" viewBox="0 0 512 512" style="enable-background:new 0 0 512 512;" xml:space="preserve">
<style type="text/css">
	.st0{fill-rule:evenodd;clip-rule:evenodd;fill:#AE9CDB;stroke:#3F3F3F;stroke-width:8;stroke-miterlimit:10;}
	.st1{fill-rule:evenodd;clip-rule:evenodd;fill:#AE9CDB;stroke:#3F3F3F;stroke-width:12;stroke-miterlimit:10;}
	.st2{fill:#808080;stroke:#3F3F3F;stroke-width:16;stroke-miterlimit:10;}
	.st3{fill:#BFBFBF;stroke:#3F3F3F;stroke-width:16;stroke-miterlimit:10;}
</style>
<rect id="line_3_" x="74.2" y="178.2" class="st0" width="112" height="32"/>
<rect id="line_2_" x="74.2" y="50.2" class="st0" width="112" height="32"/>
<rect id="line_8_" x="202.2" y="50.2" class="st0" width="112" height="32"/>
<rect id="line_1_" x="50.2" y="82.2" class="st0" width="32" height="96"/>
<rect id="line" x="178.2" y="82.2" class="st0" width="32" height="96"/>
<rect id="vertex_6_" x="21.5" y="149.4" class="st1" width="88" height="88"/>
<rect id="vertex_2_" x="149.4" y="149.4" class="st1" width="88" height="88"/>
<rect id="vertex_9_" x="21.5" y="23" class="st1" width="88" height="88"/>
<rect id="vertex_8_" x="149.4" y="21.5" class="st1" width="88" height="88"/>
<rect id="vertex_15_" x="277.5" y="23" class="st1" width="88" height="88"/>
<path id="ramp_2_" class="st2" d="M264.2,490.2h-240v-224c0,0,89.6,16,155.2,83.2C235.4,407,264.2,490.2,264.2,490.2z"/>
<path id="ramp_1_" class="st3" d="M492.2,138.2c0,89.8,0,352,0,352s-318.2,0-375,0C309,490.2,308,138.2,492.2,138.2z"/>
</svg>
