<?xml version="1.0" encoding="utf-8"?>
<!-- Generator: Adobe Illustrator 23.0.0, SVG Export Plug-In . SVG Version: 6.00 Build 0)  -->
<svg version="1.1" id="disconnect" xmlns="http://www.w3.org/2000/svg" xmlns:xlink="http://www.w3.org/1999/xlink" x="0px" y="0px"
	 viewBox="0 0 24 24" style="enable-background:new 0 0 24 24;" xml:space="preserve">
<style type="text/css">
	.st0{fill:#D8D8D8;stroke:#3F3F3F;stroke-width:0.5;stroke-miterlimit:10;}
</style>
<path id="link_2_" class="st0" d="M15.2,8.8c-0.4-0.4-1-0.4-1.3,0l0,0l-5.3,5.3c-0.4,0.4-0.3,1,0.1,1.3c0.4,0.3,0.9,0.3,1.3,0
	l5.3-5.3C15.5,9.8,15.5,9.2,15.2,8.8z"/>
<path id="break_1_" class="st0" d="M7.6,6.5C7.8,7,8.3,7.2,8.8,7.1c0.5-0.2,0.8-0.7,0.6-1.2V5.8l-0.7-2C8.6,3.3,8,3.1,7.6,3.2
	C7.1,3.4,6.8,3.9,7,4.4L7.6,6.5z"/>
<path id="break" class="st0" d="M3.6,9l2,0.7c0.5,0.2,1-0.1,1.2-0.6c0.2-0.5-0.1-1-0.6-1.2l-2-0.7C3.7,7.1,3.1,7.4,3,7.9
	S3.1,8.9,3.6,9z"/>
<path id="link_1_" class="st0" d="M12.5,7.5l2.7-2.7c1.1-1.1,2.9-1.1,4,0s1.1,2.9,0,4l0,0l-2.7,2.7c-0.4,0.4-0.4,1-0.1,1.3
	c0.4,0.4,1,0.4,1.3,0.1c0,0,0,0,0.1-0.1l2.7-2.7c1.9-1.8,2.1-4.7,0.3-6.6c-1.8-1.9-4.8-2-6.7-0.3c-0.1,0.1-0.2,0.2-0.3,0.3l-2.7,2.7
	c-0.4,0.4-0.4,1-0.1,1.3C11.5,7.9,12.1,7.9,12.5,7.5L12.5,7.5L12.5,7.5z"/>
<path id="link" class="st0" d="M9.9,20.8l2.7-2.7c0.4-0.4,0.3-1-0.1-1.3c-0.4-0.3-0.9-0.3-1.3,0l-2.7,2.7c-1.1,1.1-2.9,1.1-4,0
	s-1.1-2.9,0-4l2.7-2.7c0.4-0.4,0.3-1-0.1-1.3s-0.9-0.3-1.3,0l-2.7,2.7c-1.8,1.9-1.6,4.9,0.3,6.6C5.3,22.4,8.1,22.4,9.9,20.8z"/>
<path id="delete" class="st0" d="M21.9,14.1c-2.1-2.1-5.6-2.1-7.8,0s-2.1,5.6,0,7.8c2.1,2.1,5.6,2.1,7.8,0
	C24,19.7,24,16.3,21.9,14.1L21.9,14.1z M20.1,20.8c-0.1,0.1-0.2,0.1-0.3,0l-1.6-1.6c-0.1-0.1-0.2-0.1-0.3,0l-1.7,1.7
	c-0.1,0.1-0.2,0.1-0.3,0l-0.7-0.7c-0.1-0.1-0.1-0.2,0-0.3l1.7-1.7c0.1-0.1,0.1-0.2,0-0.3l-1.6-1.6c-0.1-0.1-0.1-0.2,0-0.3l0.7-0.7
	c0.1-0.1,0.2-0.1,0.3,0l1.6,1.6c0.1,0.1,0.2,0.1,0.3,0l1.7-1.7c0.1-0.1,0.2-0.1,0.3,0l0.7,0.7c0.1,0.1,0.1,0.2,0,0.3l-1.7,1.7
	c-0.1,0.1-0.1,0.2,0,0.3l1.6,1.6c0.1,0.1,0.1,0.2,0,0.3L20.1,20.8z"/>
</svg>
