<?xml version="1.0" encoding="utf-8"?>
<!-- Generator: Adobe Illustrator 23.0.0, SVG Export Plug-In . SVG Version: 6.00 Build 0)  -->
<svg version="1.1" id="update_components" xmlns="http://www.w3.org/2000/svg" xmlns:xlink="http://www.w3.org/1999/xlink" x="0px"
	 y="0px" viewBox="0 0 24 24" style="enable-background:new 0 0 24 24;" xml:space="preserve">
<style type="text/css">
	.st0{fill:#D8D8D8;stroke:#3F3F3F;stroke-width:0.5;stroke-miterlimit:10;}
	.st1{fill:#808080;stroke:#3F3F3F;stroke-width:0.5;stroke-miterlimit:10;}
</style>
<path id="circle_arrow" class="st0" d="M19,10.9l-0.4-4.2C18.6,6.3,18.3,6,18,6c-0.1,0-0.4,0.1-0.6,0.2l-1.1,1
	C13.7,4.7,9.5,4.7,7,7.3C5.7,8.6,5,10.2,5,12s0.7,3.4,2,4.7c1.3,1.3,2.9,2,4.7,2s3.4-0.7,4.7-2c0.4-0.4,0.8-0.8,1.1-1.4
	c0.3-0.6,0.1-1.3-0.4-1.5c-0.6-0.3-1.3-0.1-1.5,0.4c-0.2,0.3-0.4,0.6-0.7,0.9c-0.8,0.8-1.9,1.3-3.1,1.3s-2.2-0.4-3.1-1.3
	S7.3,13.2,7.3,12s0.4-2.2,1.3-3.1c1.6-1.6,4.3-1.7,5.9-0.2l-1.1,0.9c-0.2,0.2-0.4,0.5-0.3,0.8c0.1,0.3,0.3,0.5,0.6,0.6l4.1,0.9
	c0.1,0,0.1,0,0.2,0c0.2,0,0.5-0.1,0.6-0.3C18.9,11.4,19,11.2,19,10.9z"/>
<rect id="source_component" x="1" y="3" class="st1" width="3" height="3"/>
<rect id="source_component_1_" x="1" y="8" class="st0" width="3" height="3"/>
<rect id="source_component_2_" x="1" y="13" class="st0" width="3" height="3"/>
<rect id="source_component_3_" x="1" y="18" class="st0" width="3" height="3"/>
<rect id="destination_component" x="20" y="3" class="st0" width="3" height="3"/>
<rect id="destination_component_1_" x="20" y="8" class="st0" width="3" height="3"/>
<rect id="destination_component_2_" x="20" y="13" class="st1" width="3" height="3"/>
<rect id="destination_component_3_" x="20" y="18" class="st1" width="3" height="3"/>
</svg>
