<?xml version="1.0" encoding="utf-8"?>
<!-- Generator: Adobe Illustrator 23.0.0, SVG Export Plug-In . SVG Version: 6.00 Build 0)  -->
<svg version="1.1" id="weights_server" xmlns="http://www.w3.org/2000/svg" xmlns:xlink="http://www.w3.org/1999/xlink" x="0px"
	 y="0px" viewBox="0 0 32 32" style="enable-background:new 0 0 32 32;" xml:space="preserve">
<style type="text/css">
	.st0{fill-rule:evenodd;clip-rule:evenodd;fill:#AE9CDB;stroke:#3F3F3F;stroke-width:0.75;stroke-miterlimit:10;}
	.st1{fill-rule:evenodd;clip-rule:evenodd;fill:#AE9CDB;stroke:#3F3F3F;stroke-width:0.5;stroke-miterlimit:10;}
	.st2{fill-rule:evenodd;clip-rule:evenodd;fill:#BFBFBF;stroke:#3F3F3F;stroke-width:0.75;stroke-miterlimit:10;}
</style>
<path id="ring" class="st0" d="M16,2c7.7,0,14,6.3,14,14s-6.3,14-14,14S2,23.7,2,16S8.3,2,16,2z M16,4c6.6,0,12,5.4,12,12
	s-5.4,12-12,12S4,22.6,4,16S9.4,4,16,4z"/>
<rect id="line_3_" x="12.5" y="19" class="st1" width="7" height="2"/>
<rect id="line_2_" x="12.5" y="11" class="st1" width="7" height="2"/>
<rect id="line_1_" x="11" y="13" class="st1" width="2" height="6"/>
<rect id="line" x="19" y="13" class="st1" width="2" height="6"/>
<rect id="vertex_3_" x="9.2" y="9.2" class="st0" width="5.5" height="5.5"/>
<rect id="vertex_7_" x="17.2" y="9.2" class="st0" width="5.5" height="5.5"/>
<rect id="vertex_6_" x="9.2" y="17.2" class="st0" width="5.5" height="5.5"/>
<rect id="vertex_4_" x="17.2" y="17.2" class="st0" width="5.5" height="5.5"/>
<circle id="influence_2_" class="st2" cx="8" cy="6" r="4.5"/>
<circle id="influence_1_" class="st2" cx="7" cy="25" r="6"/>
<circle id="influence" class="st2" cx="27.4" cy="9" r="3.5"/>
</svg>
