<?xml version="1.0" encoding="utf-8"?>
<!-- Generator: Adobe Illustrator 23.0.0, SVG Export Plug-In . SVG Version: 6.00 Build 0)  -->
<svg version="1.1" id="use_transform" xmlns="http://www.w3.org/2000/svg" xmlns:xlink="http://www.w3.org/1999/xlink" x="0px"
	 y="0px" viewBox="0 0 24 24" style="enable-background:new 0 0 24 24;" xml:space="preserve">
<style type="text/css">
	.st0{fill:#D8D8D8;stroke:#3F3F3F;stroke-width:0.4585;stroke-miterlimit:10;}
</style>
<path id="axis" class="st0" d="M14.6,12L21,7.5c0.5-0.3,0.6-0.9,0.2-1.4l-0.6-0.8c-0.3-0.5-0.9-0.6-1.4-0.2l-5.8,4.1V2
	c0-0.6-0.4-1-1-1h-1c-0.6,0-1,0.4-1,1v7.1L4.7,5C4.2,4.7,3.6,4.8,3.3,5.3L2.7,6.1C2.4,6.6,2.5,7.2,2.9,7.5L9.4,12L3,16.5
	c-0.5,0.3-0.6,0.9-0.2,1.4l0.6,0.8c0.3,0.5,0.9,0.6,1.4,0.2l5.8-4.1V22c0,0.6,0.4,1,1,1h1c0.6,0,1-0.4,1-1v-7.1l5.8,4.1
	c0.5,0.3,1.1,0.2,1.4-0.2l0.6-0.8c0.3-0.5,0.2-1.1-0.2-1.4L14.6,12z"/>
</svg>
