<?xml version="1.0" encoding="utf-8"?>
<!-- Generator: Adobe Illustrator 23.0.0, SVG Export Plug-In . SVG Version: 6.00 Build 0)  -->
<svg version="1.1" id="use_curve" xmlns="http://www.w3.org/2000/svg" xmlns:xlink="http://www.w3.org/1999/xlink" x="0px" y="0px"
	 viewBox="0 0 24 24" style="enable-background:new 0 0 24 24;" xml:space="preserve">
<style type="text/css">
	.st0{fill:#D8D8D8;stroke:#3F3F3F;stroke-width:0.5;stroke-miterlimit:10;}
</style>
<path id="curve" class="st0" d="M6.5,5.7c2-1,4-1.4,4.9-0.2c0.8,1.1-0.1,3.7-0.7,6.2c-0.8,3.6-1.8,7.1-0.2,8.7
	c0.6,0.7,1.6,1.2,2.8,1.4c1.2,0.2,2.8-0.1,4.2-0.7v-2.9c-1.6,0.7-3.9,1.3-4.8,0.3s-0.1-3.9,0.5-6.3c0.9-3.7,1.9-6.6,0.1-8.7
	c-1.8-2-4.7-1.7-6.9-0.8"/>
<path id="square_1_" class="st0" d="M6.5,6.5H2V2h4.5V6.5z M5.2,3.4H3.4v1.8h1.8V3.4z"/>
<path id="square" class="st0" d="M22,22h-4.5v-4.5H22V22z M20.6,18.8h-1.8v1.8h1.8V18.8z"/>
</svg>
