<?xml version="1.0" encoding="utf-8"?>
<!-- Generator: Adobe Illustrator 23.0.0, SVG Export Plug-In . SVG Version: 6.00 Build 0)  -->
<svg version="1.1" id="create" xmlns="http://www.w3.org/2000/svg" xmlns:xlink="http://www.w3.org/1999/xlink" x="0px" y="0px"
	 viewBox="0 0 24 24" style="enable-background:new 0 0 24 24;" xml:space="preserve">
<style type="text/css">
	.st0{fill-rule:evenodd;clip-rule:evenodd;fill:#D8D8D8;stroke:#3F3F3F;stroke-width:0.5;stroke-miterlimit:10;}
	.st1{fill-rule:evenodd;clip-rule:evenodd;fill:#3F3F3F;}
</style>
<path id="outlined_box" class="st0" d="M11,3.8h7.5h1.7v1.7V13v1.7h-1.8v1.8h1.8c1,0,1.8-0.8,1.8-1.8V13V5.5V3.8
	c0-1-0.8-1.8-1.8-1.8h-1.7H11H9.3c-1,0-1.8,0.8-1.8,1.8v1.8h1.8V3.8H11L11,3.8L11,3.8z"/>
<path id="filled_box" class="st0" d="M2,9.3c0-1,0.8-1.8,1.8-1.8h10.9c1,0,1.8,0.8,1.8,1.8v10.9c0,1-0.8,1.8-1.8,1.8H3.8
	c-1,0-1.8-0.8-1.8-1.8V9.3L2,9.3L2,9.3z"/>
<polygon id="plus" class="st1" points="8.2,10.4 8.2,13.6 4.9,13.6 4.9,15.8 8.1,15.8 8.1,19 10.3,19 10.3,15.8 13.5,15.8 
	13.5,13.6 10.3,13.6 10.3,10.4 "/>
</svg>
