<?xml version="1.0" encoding="utf-8"?>
<!-- Generator: Adobe Illustrator 23.0.0, SVG Export Plug-In . SVG Version: 6.00 Build 0)  -->
<svg version="1.1" id="add_transform" xmlns="http://www.w3.org/2000/svg" xmlns:xlink="http://www.w3.org/1999/xlink" x="0px"
	 y="0px" viewBox="0 0 24 24" style="enable-background:new 0 0 24 24;" xml:space="preserve">
<style type="text/css">
	.st0{fill-rule:evenodd;clip-rule:evenodd;fill:#D8D8D8;stroke:#3F3F3F;stroke-width:0.5;stroke-miterlimit:10;}
	.st1{fill-rule:evenodd;clip-rule:evenodd;fill:#D8D8D8;stroke:#3F3F3F;stroke-width:1.5;stroke-miterlimit:10;}
	.st2{fill-rule:evenodd;clip-rule:evenodd;fill:#3F3F3F;}
	.st3{fill:#D8D8D8;stroke:#3F3F3F;stroke-width:0.5;stroke-miterlimit:10;}
</style>
<circle id="circle_1_" class="st0" cx="6" cy="18" r="5.5"/>
<circle id="circle_2_" class="st1" cx="6" cy="18" r="3.5"/>
<circle id="circle_3_" class="st2" cx="6" cy="18" r="1.5"/>
<path id="pin" class="st3" d="M23.3,5.4c0,0-4.2-4.2-4.9-4.8c-0.2-0.2-0.7-0.2-1,0.1l-0.8,0.8c-0.2,0.2-0.2,0.3-0.2,0.6v1.3
	l-1.9,1.9h-4.4c-0.6,0-1,0.7-0.6,1.3l3.5,3.5l-4.2,4.2l0,0c-0.3,0.3-0.3,0.8,0,1.1c0.3,0.3,0.8,0.3,1.1,0l4.2-4.2l0,0l3.4,3.4
	c0.5,0.5,1.3,0.2,1.3-0.6V9.5l1.9-1.9h1.3c0.2,0,0.4-0.1,0.6-0.2l0.8-0.8C23.6,6.2,23.6,5.8,23.3,5.4z"/>
</svg>
