<?xml version="1.0" encoding="utf-8"?>
<!-- Generator: Adobe Illustrator 23.0.0, SVG Export Plug-In . SVG Version: 6.00 Build 0)  -->
<svg version="1.1" id="add" xmlns="http://www.w3.org/2000/svg" xmlns:xlink="http://www.w3.org/1999/xlink" x="0px" y="0px"
	 viewBox="0 0 40 26" style="enable-background:new 0 0 40 26;" xml:space="preserve">
<style type="text/css">
	.st0{fill:#D8D8D8;stroke:#3F3F3F;stroke-miterlimit:10;}
	.st1{fill-rule:evenodd;clip-rule:evenodd;fill:#AE9CDB;stroke:#3F3F3F;stroke-miterlimit:10;}
</style>
<path id="arrow" class="st0" d="M12.6,9.3l2.3,2.3h-8c-0.8,0-1.5,0.6-1.5,1.4c0,0.8,0.6,1.4,1.4,1.4h8.1l-2.3,2.3
	c-0.5,0.5-0.5,1.4,0,2c0.5,0.5,1.4,0.5,2,0l4.9-4.9c0.1-0.1,0.2-0.3,0.2-0.5v-0.5c0-0.2-0.1-0.4-0.2-0.5l-4.9-5
	c-0.5-0.5-1.4-0.5-2,0S12,8.8,12.6,9.3L12.6,9.3z"/>
<path id="box" class="st0" d="M1,5.6v14.7c0,2.3,1.9,4.1,4.1,4.1h14.7c2.3,0,4.1-1.9,4.1-4.1V5.6c0-2.3-1.9-4.1-4.1-4.1H5.1
	C2.9,1.5,1,3.4,1,5.6z M19.9,4.2c0.8,0,1.4,0.6,1.4,1.4v14.8c0,0.8-0.6,1.4-1.4,1.4H5.1c-0.8,0-1.4-0.6-1.4-1.4V5.6
	c0-0.8,0.6-1.4,1.4-1.4H19.9z"/>
<polygon id="plus" class="st1" points="31.1,6.5 31.1,11.4 26,11.4 26,14.6 30.9,14.6 30.9,19.5 34.1,19.5 34.1,14.6 39,14.6 
	39,11.4 34.1,11.4 34.1,6.5 "/>
</svg>
