<?xml version="1.0" encoding="utf-8"?>
<!-- Generator: Adobe Illustrator 23.0.0, SVG Export Plug-In . SVG Version: 6.00 Build 0)  -->
<svg version="1.1" id="weights_server" xmlns="http://www.w3.org/2000/svg" xmlns:xlink="http://www.w3.org/1999/xlink" x="0px"
	 y="0px" viewBox="0 0 512 512" style="enable-background:new 0 0 512 512;" xml:space="preserve">
<style type="text/css">
	.st0{fill-rule:evenodd;clip-rule:evenodd;fill:#AE9CDB;stroke:#3F3F3F;stroke-width:12;stroke-miterlimit:10;}
	.st1{fill-rule:evenodd;clip-rule:evenodd;fill:#AE9CDB;stroke:#3F3F3F;stroke-width:8;stroke-miterlimit:10;}
	.st2{fill-rule:evenodd;clip-rule:evenodd;fill:#BFBFBF;stroke:#3F3F3F;stroke-width:12;stroke-miterlimit:10;}
</style>
<path id="ring" class="st0" d="M256.8,28.2c123.2,0,224,100.8,224,224s-100.8,224-224,224s-224-100.8-224-224S133.6,28.2,256.8,28.2
	z M256.8,60.2c105.6,0,192,86.4,192,192s-86.4,192-192,192s-192-86.4-192-192S151.1,60.2,256.8,60.2z"/>
<rect id="line_3_" x="200.8" y="300.2" class="st1" width="112" height="32"/>
<rect id="line_2_" x="200.8" y="172.2" class="st1" width="112" height="32"/>
<rect id="line_1_" x="176.8" y="204.2" class="st1" width="32" height="96"/>
<rect id="line" x="304.8" y="204.2" class="st1" width="32" height="96"/>
<rect id="vertex_3_" x="147.9" y="143.4" class="st0" width="88" height="88"/>
<rect id="vertex_7_" x="276" y="143.4" class="st0" width="88" height="88"/>
<rect id="vertex_6_" x="147.9" y="271.5" class="st0" width="88" height="88"/>
<rect id="vertex_4_" x="276" y="271.5" class="st0" width="88" height="88"/>
<circle id="influence_2_" class="st2" cx="128.8" cy="92.2" r="72"/>
<circle id="influence_1_" class="st2" cx="112.8" cy="396.2" r="96"/>
<circle id="influence" class="st2" cx="439.1" cy="140.2" r="56"/>
</svg>
